<svg width="98" height="96" viewBox="0 0 98 96" fill="none" xmlns="http://www.w3.org/2000/svg">
<path d="M48.86 0C21.88 0 0 21.88 0 48.88C0 70.46 14 88.78 33.42 95.24C35.86 95.69 36.76 94.18 36.76 92.89C36.76 91.73 36.71 88.65 36.69 84.58C27.63 86.55 22.14 84.36 20.23 78.03C18.75 74.26 16.94 71.88 14.8 70.88C11.84 68.86 11.96 67.87 15.14 67.91C18.41 68.14 20.9 69.82 22.62 72.94C26.98 80.41 34.06 78.25 36.85 77C37.29 73.85 38.55 71.69 39.95 70.47C29.1 69.24 17.69 65.04 17.69 46.32C17.69 40.98 19.59 36.62 22.72 33.2C22.22 31.97 20.54 27 23.2 20.27C25.93 19.4 30.41 21.07 36.64 25.28C40.53 24.2 44.71 23.66 48.87 23.64C53.02 23.66 57.2 24.2 61.11 25.28C67.32 21.07 71.8 19.4 74.53 20.27C77.2 27 75.52 31.97 75.02 33.2C78.15 36.62 80.04 40.98 80.04 46.32C80.04 65.09 68.61 69.22 57.73 70.43C59.48 71.94 61.05 74.92 61.05 79.48C61.05 86.01 60.99 91.29 60.99 92.89C60.99 94.19 61.87 95.72 64.35 95.24C83.75 88.76 97.74 70.46 97.74 48.88C97.74 21.88 75.85 0 48.86 0Z" fill="#171717"/>
</svg>
