<svg width="93" height="93" viewBox="0 0 93 93" fill="none" xmlns="http://www.w3.org/2000/svg">
<path d="M65.2709 0H27.6951C12.4239 0 0 12.4239 0 27.6951V65.2709C0 80.5421 12.4239 92.966 27.6951 92.966H65.2709C80.5421 92.966 92.966 80.5421 92.966 65.2709V27.6951C92.9658 12.4239 80.5419 0 65.2709 0ZM83.6136 65.2709C83.6136 75.4012 75.4012 83.6136 65.2709 83.6136H27.6951C17.5648 83.6136 9.35238 75.4012 9.35238 65.2709V27.6951C9.35238 17.5646 17.5648 9.35238 27.6951 9.35238H65.2709C75.4012 9.35238 83.6136 17.5646 83.6136 27.6951V65.2709Z" fill="#171717"/>
<path d="M46.483 22.4387C33.2249 22.4387 22.4387 33.225 22.4387 46.4829C22.4387 59.7408 33.2249 70.5272 46.483 70.5272C59.7411 70.5272 70.5273 59.7409 70.5273 46.4829C70.5273 33.2248 59.7411 22.4387 46.483 22.4387ZM46.483 61.175C38.3688 61.175 31.7911 54.5972 31.7911 46.483C31.7911 38.3688 38.369 31.7911 46.483 31.7911C54.5972 31.7911 61.1749 38.3688 61.1749 46.483C61.1749 54.5971 54.597 61.175 46.483 61.175Z" fill="#171717"/>
<path d="M70.5732 28.3808C73.7551 28.3808 76.3345 25.8014 76.3345 22.6195C76.3345 19.4376 73.7551 16.8582 70.5732 16.8582C67.3913 16.8582 64.8119 19.4376 64.8119 22.6195C64.8119 25.8014 67.3913 28.3808 70.5732 28.3808Z" fill="#171717"/>
</svg>
