<svg width="112" height="91" viewBox="0 0 112 91" fill="none" xmlns="http://www.w3.org/2000/svg">
<path d="M99.7422 23.1307C99.8098 24.1093 99.8098 25.0879 99.8098 26.0756C99.8098 56.1695 76.9 90.8769 35.0084 90.8769V90.8589C22.6335 90.8769 10.5157 87.3322 0.0980377 80.6487C1.89745 80.8652 3.70588 80.9734 5.51882 80.9779C15.7741 80.9869 25.7363 77.546 33.8043 71.2097C24.0586 71.0248 15.5125 64.6705 12.5271 55.3938C15.941 56.0522 19.4586 55.9169 22.8094 55.0015C12.1843 52.8548 4.54019 43.5195 4.54019 32.6779C4.54019 32.5787 4.54019 32.484 4.54019 32.3893C7.70608 34.1526 11.2508 35.1313 14.8767 35.2395C4.86941 28.5515 1.7847 15.2385 7.82784 4.82988C19.391 19.0583 36.4516 27.7081 54.7659 28.6236C52.9304 20.7134 55.4378 12.4244 61.3547 6.86381C70.5276 -1.75894 84.9545 -1.31698 93.5773 7.85145C98.6778 6.84577 103.566 4.9742 108.04 2.32243C106.34 7.59439 102.782 12.0726 98.0284 14.9183C102.543 14.3862 106.953 13.1775 111.107 11.333C108.049 15.915 104.198 19.9062 99.7422 23.1307Z" fill="#171717"/>
</svg>
