<svg version="1.1" preserveAspectRatio="none" xmlns="http://www.w3.org/2000/svg" width="500" height="500" viewBox="0 0 500 500"><rect width="100%" height="100%" fill="#111931" fill-opacity="1"/><svg viewBox="-164.0391 311.4857 394.2858 329.6" width="333" height="278.36863513725325" x="83.5px" y="110.8157px" xmlns="http://www.w3.org/2000/svg" xmlns:xlink="http://www.w3.org/1999/xlink" preserveAspectRatio="none"><defs></defs><style>.icon1 {fill:#EDE9E9;fill-opacity:1;}.icon3 {fill:#DDEF3F;fill-opacity:1;}.icon3-str {stroke:#DDEF3F;stroke-opacity:1;}.text {fill:#EDE9E9;fill-opacity:1;}</style><g opacity="1" transform="rotate(0 -164.0391 607.4857)">
<svg width="330.3012" height="33.6" x="-164.0391" y="607.4857" version="1.1" preserveAspectRatio="none" viewBox="1.48 -29.68 296 30.12">
  <g transform="matrix(1 0 0 1 0 0)" class="icon1"><path id="id-6izo4zJp12" d="M40.16-28L43-28L33.56 0L30.44 0L22.24-23.88L14 0L10.92 0L1.48-28L4.52-28L12.60-3.92L20.96-28L23.72-28L31.96-3.80L40.16-28Z M66.56-10.52L66.52-9.64L48.92-9.64Q49.16-6.36 51.44-4.34Q53.72-2.32 57.20-2.32L57.20-2.32Q59.16-2.32 60.80-3.02Q62.44-3.72 63.64-5.08L63.64-5.08L65.24-3.24Q63.84-1.56 61.74-0.68Q59.64 0.20 57.12 0.20L57.12 0.20Q53.88 0.20 51.38-1.18Q48.88-2.56 47.48-5Q46.08-7.44 46.08-10.52L46.08-10.52Q46.08-13.60 47.42-16.04Q48.76-18.48 51.10-19.84Q53.44-21.20 56.36-21.20L56.36-21.20Q59.28-21.20 61.60-19.84Q63.92-18.48 65.24-16.06Q66.56-13.64 66.56-10.52L66.56-10.52ZM56.36-18.76Q53.32-18.76 51.26-16.82Q49.20-14.88 48.92-11.76L48.92-11.76L63.84-11.76Q63.56-14.88 61.50-16.82Q59.44-18.76 56.36-18.76L56.36-18.76Z M85.20-21.20Q88.16-21.20 90.56-19.86Q92.96-18.52 94.32-16.08Q95.68-13.64 95.68-10.52L95.68-10.52Q95.68-7.40 94.32-4.96Q92.96-2.52 90.56-1.16Q88.16 0.20 85.20 0.20L85.20 0.20Q82.56 0.20 80.46-0.92Q78.36-2.04 77.08-4.16L77.08-4.16L77.08 0L74.36 0L74.36-29.68L77.20-29.68L77.20-17.04Q78.52-19.08 80.58-20.14Q82.64-21.20 85.20-21.20L85.20-21.20ZM85.00-2.32Q87.20-2.32 89-3.34Q90.80-4.36 91.82-6.24Q92.84-8.12 92.84-10.52L92.84-10.52Q92.84-12.92 91.82-14.80Q90.80-16.68 89-17.70Q87.20-18.72 85.00-18.72L85.00-18.72Q82.76-18.72 80.98-17.70Q79.20-16.68 78.18-14.80Q77.16-12.92 77.16-10.52L77.16-10.52Q77.16-8.12 78.18-6.24Q79.20-4.36 80.98-3.34Q82.76-2.32 85.00-2.32L85.00-2.32Z M138.24-1.44L136.60 0.44L132.72-3.56Q129.16 0.24 123.36 0.24L123.36 0.24Q120.64 0.24 118.50-0.66Q116.36-1.56 115.16-3.18Q113.96-4.80 113.96-6.88L113.96-6.88Q113.96-9.40 115.56-11.40Q117.16-13.40 121-15.60L121-15.60Q119-17.68 118.24-19.14Q117.48-20.60 117.48-22.24L117.48-22.24Q117.48-24.92 119.40-26.56Q121.32-28.20 124.56-28.20L124.56-28.20Q127.56-28.20 129.32-26.72Q131.08-25.24 131.08-22.64L131.08-22.64Q131.08-20.56 129.68-18.90Q128.28-17.24 124.84-15.24L124.84-15.24L132.52-7.32Q133.80-9.60 134.40-12.72L134.40-12.72L136.72-12Q135.96-8.24 134.24-5.56L134.24-5.56L138.24-1.44ZM124.56-26.08Q122.48-26.08 121.30-25.04Q120.12-24 120.12-22.28L120.12-22.28Q120.12-21.04 120.76-19.92Q121.40-18.80 123.28-16.88L123.28-16.88Q126.32-18.64 127.48-19.88Q128.64-21.12 128.64-22.60L128.64-22.60Q128.64-24.20 127.56-25.14Q126.48-26.08 124.56-26.08L124.56-26.08ZM123.52-2.12Q128.16-2.12 131.04-5.28L131.04-5.28L122.60-13.96Q119.28-12.08 118.02-10.56Q116.76-9.04 116.76-7.16L116.76-7.16Q116.76-4.88 118.62-3.50Q120.48-2.12 123.52-2.12L123.52-2.12Z M184.44-28L186.88-28L186.88 0L184.04 0L184.04-22.40L173.04-3.56L171.64-3.56L160.64-22.28L160.64 0L157.80 0L157.80-28L160.24-28L172.40-7.24L184.44-28Z M206 0.20Q202.96 0.20 200.52-1.18Q198.08-2.56 196.68-5Q195.28-7.44 195.28-10.52L195.28-10.52Q195.28-13.60 196.68-16.04Q198.08-18.48 200.52-19.84Q202.96-21.20 206-21.20L206-21.20Q209.04-21.20 211.48-19.84Q213.92-18.48 215.30-16.04Q216.68-13.60 216.68-10.52L216.68-10.52Q216.68-7.44 215.30-5Q213.92-2.56 211.48-1.18Q209.04 0.20 206 0.20L206 0.20ZM206-2.32Q208.24-2.32 210.02-3.34Q211.80-4.36 212.80-6.24Q213.80-8.12 213.80-10.52L213.80-10.52Q213.80-12.92 212.80-14.80Q211.80-16.68 210.02-17.70Q208.24-18.72 206-18.72L206-18.72Q203.76-18.72 201.98-17.70Q200.20-16.68 199.18-14.80Q198.16-12.92 198.16-10.52L198.16-10.52Q198.16-8.12 199.18-6.24Q200.20-4.36 201.98-3.34Q203.76-2.32 206-2.32L206-2.32Z M235.32-21.20Q238.28-21.20 240.68-19.86Q243.08-18.52 244.44-16.08Q245.80-13.64 245.80-10.52L245.80-10.52Q245.80-7.40 244.44-4.96Q243.08-2.52 240.68-1.16Q238.28 0.20 235.32 0.20L235.32 0.20Q232.68 0.20 230.58-0.92Q228.48-2.04 227.20-4.16L227.20-4.16L227.20 0L224.48 0L224.48-29.68L227.32-29.68L227.32-17.04Q228.64-19.08 230.70-20.14Q232.76-21.20 235.32-21.20L235.32-21.20ZM235.12-2.32Q237.32-2.32 239.12-3.34Q240.92-4.36 241.94-6.24Q242.96-8.12 242.96-10.52L242.96-10.52Q242.96-12.92 241.94-14.80Q240.92-16.68 239.12-17.70Q237.32-18.72 235.12-18.72L235.12-18.72Q232.88-18.72 231.10-17.70Q229.32-16.68 228.30-14.80Q227.28-12.92 227.28-10.52L227.28-10.52Q227.28-8.12 228.30-6.24Q229.32-4.36 231.10-3.34Q232.88-2.32 235.12-2.32L235.12-2.32Z M253.60 0L253.60-21.04L256.44-21.04L256.44 0L253.60 0ZM255.04-25.64Q254.16-25.64 253.56-26.24Q252.96-26.84 252.96-27.68L252.96-27.68Q252.96-28.48 253.56-29.08Q254.16-29.68 255.04-29.68L255.04-29.68Q255.92-29.68 256.52-29.10Q257.12-28.52 257.12-27.72L257.12-27.72Q257.12-26.84 256.52-26.24Q255.92-25.64 255.04-25.64L255.04-25.64Z M266.36 0L266.36-29.68L269.20-29.68L269.20 0L266.36 0Z M297.48-10.52L297.44-9.64L279.84-9.64Q280.08-6.36 282.36-4.34Q284.64-2.32 288.12-2.32L288.12-2.32Q290.08-2.32 291.72-3.02Q293.36-3.72 294.56-5.08L294.56-5.08L296.16-3.24Q294.76-1.56 292.66-0.68Q290.56 0.20 288.04 0.20L288.04 0.20Q284.80 0.20 282.30-1.18Q279.80-2.56 278.40-5Q277-7.44 277-10.52L277-10.52Q277-13.60 278.34-16.04Q279.68-18.48 282.02-19.84Q284.36-21.20 287.28-21.20L287.28-21.20Q290.20-21.20 292.52-19.84Q294.84-18.48 296.16-16.06Q297.48-13.64 297.48-10.52L297.48-10.52ZM287.28-18.76Q284.24-18.76 282.18-16.82Q280.12-14.88 279.84-11.76L279.84-11.76L294.76-11.76Q294.48-14.88 292.42-16.82Q290.36-18.76 287.28-18.76L287.28-18.76Z"/></g>
</svg>
</g><g opacity="1" transform="rotate(0 -164.0391 311.4857)">
<svg width="342.9202" height="120" x="-164.0391" y="311.4857" version="1.1" preserveAspectRatio="none" viewBox="1.16 -28.48 82.76 28.96">
  <g transform="matrix(1 0 0 1 0 0)" class="icon3"><path id="id-D6z1nYkh3" d="M1.16 0L6.76-28L13.28-28L8.72-5.28L22.76-5.28L21.68 0L1.16 0Z M51-22.80L36.32-22.80L35.12-16.72L48.12-16.72L47.12-11.68L34.08-11.68L32.80-5.20L48.08-5.20L47 0L25.32 0L30.92-28L52.08-28L51-22.80Z M66.60 0.48Q62.40 0.48 59.32-1.04Q56.24-2.56 54.60-5.32Q52.96-8.08 52.96-11.68L52.96-11.68Q52.96-16.44 55.14-20.26Q57.32-24.08 61.26-26.28Q65.20-28.48 70.28-28.48L70.28-28.48Q74.48-28.48 77.56-26.96Q80.64-25.44 82.28-22.68Q83.92-19.92 83.92-16.32L83.92-16.32Q83.92-11.56 81.74-7.74Q79.56-3.92 75.62-1.72Q71.68 0.48 66.60 0.48L66.60 0.48ZM67.16-5.04Q70.24-5.04 72.56-6.52Q74.88-8 76.12-10.48Q77.36-12.96 77.36-15.96L77.36-15.96Q77.36-19.16 75.36-21.06Q73.36-22.96 69.72-22.96L69.72-22.96Q66.64-22.96 64.32-21.48Q62-20 60.76-17.52Q59.52-15.04 59.52-12.04L59.52-12.04Q59.52-8.84 61.52-6.94Q63.52-5.04 67.16-5.04L67.16-5.04Z"/></g>
</svg>
</g><g opacity="1" transform="rotate(0 -164.0391 447.4857)">
<svg width="394.2858" height="120" x="-164.0391" y="447.4857" version="1.1" preserveAspectRatio="none" viewBox="1.16 -28 92 28">
  <g transform="matrix(1 0 0 1 0 0)" class="text"><path id="id--VpF9B9iX3" d="M1.16 0L6.76-28L18.48-28Q22.76-28 25.86-26.58Q28.96-25.16 30.62-22.52Q32.28-19.88 32.28-16.32L32.28-16.32Q32.28-11.44 30.08-7.74Q27.88-4.04 23.94-2.02Q20 0 14.84 0L14.84 0L1.16 0ZM8.72-5.32L15.04-5.32Q18.32-5.32 20.74-6.70Q23.16-8.08 24.44-10.50Q25.72-12.92 25.72-15.96L25.72-15.96Q25.72-19.12 23.68-20.90Q21.64-22.68 17.76-22.68L17.76-22.68L12.20-22.68L8.72-5.32Z M59.88-22.80L45.20-22.80L44-16.72L57-16.72L56-11.68L42.96-11.68L41.68-5.20L56.96-5.20L55.88 0L34.20 0L39.80-28L60.96-28L59.88-22.80Z M86.44-28L93.16-28L75.44 0L69.08 0L62.56-28L69.24-28L73.76-8.04L86.44-28Z"/></g>
</svg>
</g></svg></svg>